<svg xmlns="http://www.w3.org/2000/svg" width="1200" height="630" viewBox="0 0 1200 630" role="img" aria-labelledby="title desc">
  <title id="title">Truepane app screenshot generator</title>
  <desc id="desc">A Truepane social preview showing store screenshot slides with procedural device frames and backgrounds.</desc>
  <defs>
    <g id="stageDotRow"><circle cx="10" cy="10" r="1" fill="#c8c2b2"/><circle cx="30" cy="10" r="1" fill="#c8c2b2"/><circle cx="50" cy="10" r="1" fill="#c8c2b2"/><circle cx="70" cy="10" r="1" fill="#c8c2b2"/><circle cx="90" cy="10" r="1" fill="#c8c2b2"/><circle cx="110" cy="10" r="1" fill="#c8c2b2"/><circle cx="130" cy="10" r="1" fill="#c8c2b2"/><circle cx="150" cy="10" r="1" fill="#c8c2b2"/><circle cx="170" cy="10" r="1" fill="#c8c2b2"/><circle cx="190" cy="10" r="1" fill="#c8c2b2"/><circle cx="210" cy="10" r="1" fill="#c8c2b2"/><circle cx="230" cy="10" r="1" fill="#c8c2b2"/><circle cx="250" cy="10" r="1" fill="#c8c2b2"/><circle cx="270" cy="10" r="1" fill="#c8c2b2"/><circle cx="290" cy="10" r="1" fill="#c8c2b2"/><circle cx="310" cy="10" r="1" fill="#c8c2b2"/><circle cx="330" cy="10" r="1" fill="#c8c2b2"/><circle cx="350" cy="10" r="1" fill="#c8c2b2"/><circle cx="370" cy="10" r="1" fill="#c8c2b2"/><circle cx="390" cy="10" r="1" fill="#c8c2b2"/><circle cx="410" cy="10" r="1" fill="#c8c2b2"/><circle cx="430" cy="10" r="1" fill="#c8c2b2"/><circle cx="450" cy="10" r="1" fill="#c8c2b2"/><circle cx="470" cy="10" r="1" fill="#c8c2b2"/><circle cx="490" cy="10" r="1" fill="#c8c2b2"/><circle cx="510" cy="10" r="1" fill="#c8c2b2"/><circle cx="530" cy="10" r="1" fill="#c8c2b2"/><circle cx="550" cy="10" r="1" fill="#c8c2b2"/><circle cx="570" cy="10" r="1" fill="#c8c2b2"/><circle cx="590" cy="10" r="1" fill="#c8c2b2"/><circle cx="610" cy="10" r="1" fill="#c8c2b2"/><circle cx="630" cy="10" r="1" fill="#c8c2b2"/><circle cx="650" cy="10" r="1" fill="#c8c2b2"/><circle cx="670" cy="10" r="1" fill="#c8c2b2"/><circle cx="690" cy="10" r="1" fill="#c8c2b2"/><circle cx="710" cy="10" r="1" fill="#c8c2b2"/><circle cx="730" cy="10" r="1" fill="#c8c2b2"/><circle cx="750" cy="10" r="1" fill="#c8c2b2"/><circle cx="770" cy="10" r="1" fill="#c8c2b2"/><circle cx="790" cy="10" r="1" fill="#c8c2b2"/><circle cx="810" cy="10" r="1" fill="#c8c2b2"/><circle cx="830" cy="10" r="1" fill="#c8c2b2"/><circle cx="850" cy="10" r="1" fill="#c8c2b2"/><circle cx="870" cy="10" r="1" fill="#c8c2b2"/><circle cx="890" cy="10" r="1" fill="#c8c2b2"/><circle cx="910" cy="10" r="1" fill="#c8c2b2"/><circle cx="930" cy="10" r="1" fill="#c8c2b2"/><circle cx="950" cy="10" r="1" fill="#c8c2b2"/><circle cx="970" cy="10" r="1" fill="#c8c2b2"/><circle cx="990" cy="10" r="1" fill="#c8c2b2"/><circle cx="1010" cy="10" r="1" fill="#c8c2b2"/><circle cx="1030" cy="10" r="1" fill="#c8c2b2"/><circle cx="1050" cy="10" r="1" fill="#c8c2b2"/><circle cx="1070" cy="10" r="1" fill="#c8c2b2"/><circle cx="1090" cy="10" r="1" fill="#c8c2b2"/><circle cx="1110" cy="10" r="1" fill="#c8c2b2"/><circle cx="1130" cy="10" r="1" fill="#c8c2b2"/><circle cx="1150" cy="10" r="1" fill="#c8c2b2"/><circle cx="1170" cy="10" r="1" fill="#c8c2b2"/><circle cx="1190" cy="10" r="1" fill="#c8c2b2"/></g>
    <!-- Generated by scripts/generate-og-card-patterns.mjs. Mirrors render.ts shape families for the OG preview. -->
    <clipPath id="ogCardPatternClip">
      <rect x="16" y="16" width="188" height="448" rx="24"/>
    </clipPath>
    <g id="ogPatternRings">
      <circle cx="-17.6" cy="144.0" r="55.0" fill="none" stroke="#1a1612" stroke-width="4" opacity="0.140"/>
      <circle cx="-17.6" cy="144.0" r="69.3" fill="none" stroke="#1a1612" stroke-width="4" opacity="0.122"/>
      <circle cx="-17.6" cy="144.0" r="83.6" fill="none" stroke="#1a1612" stroke-width="4" opacity="0.104"/>
      <circle cx="-17.6" cy="144.0" r="97.9" fill="none" stroke="#1a1612" stroke-width="4" opacity="0.086"/>
      <circle cx="189.2" cy="105.6" r="39.6" fill="none" stroke="#1a1612" stroke-width="4" opacity="0.140"/>
      <circle cx="189.2" cy="105.6" r="52.8" fill="none" stroke="#1a1612" stroke-width="4" opacity="0.122"/>
      <circle cx="189.2" cy="105.6" r="66.0" fill="none" stroke="#1a1612" stroke-width="4" opacity="0.104"/>
      <circle cx="189.2" cy="105.6" r="79.2" fill="none" stroke="#1a1612" stroke-width="4" opacity="0.086"/>
      <circle cx="171.6" cy="364.8" r="50.6" fill="none" stroke="#1a1612" stroke-width="4" opacity="0.140"/>
      <circle cx="171.6" cy="364.8" r="64.9" fill="none" stroke="#1a1612" stroke-width="4" opacity="0.122"/>
      <circle cx="171.6" cy="364.8" r="79.2" fill="none" stroke="#1a1612" stroke-width="4" opacity="0.104"/>
      <circle cx="171.6" cy="364.8" r="93.5" fill="none" stroke="#1a1612" stroke-width="4" opacity="0.086"/>
    </g>
    <g id="ogPatternWaves">
      <path d="M-16.0 135.1 L-6.0 125.5 L4.0 118.2 L14.0 114.5 L24.0 115.1 L34.0 119.7 L44.0 127.6 L54.0 137.6 L64.0 148.0 L74.0 157.0 L84.0 163.3 L94.0 165.8 L104.0 164.0 L114.0 158.2 L124.0 149.5 L134.0 139.2 L144.0 129.1 L154.0 120.7 L164.0 115.5 L174.0 114.3 L184.0 117.4 L194.0 124.1 L204.0 133.5 L214.0 143.9 L224.0 153.7 L234.0 161.2" fill="none" stroke="#f0e4cc" stroke-width="6" stroke-linecap="round" opacity="0.460"/>
      <path d="M-16.0 185.5 L-6.0 179.2 L4.0 172.3 L14.0 165.6 L24.0 159.8 L34.0 155.5 L44.0 153.2 L54.0 153.1 L64.0 155.2 L74.0 159.3 L84.0 165.0 L94.0 171.6 L104.0 178.5 L114.0 184.9 L124.0 190.2 L134.0 193.7 L144.0 195.1 L154.0 194.3 L164.0 191.3 L174.0 186.5 L184.0 180.3 L194.0 173.5 L204.0 166.7 L214.0 160.7 L224.0 156.1 L234.0 153.5" fill="none" stroke="#f0e4cc" stroke-width="6" stroke-linecap="round" opacity="0.430"/>
      <path d="M-16.0 199.5 L-6.0 210.8 L4.0 221.6 L14.0 229.9 L24.0 234.3 L34.0 233.9 L44.0 228.9 L54.0 220.0 L64.0 209.1 L74.0 197.9 L84.0 188.5 L94.0 182.7 L104.0 181.4 L114.0 185.0 L124.0 192.6 L134.0 203.1 L144.0 214.5 L154.0 224.6 L164.0 231.8 L174.0 234.7 L184.0 232.7 L194.0 226.3 L204.0 216.6 L214.0 205.3 L224.0 194.6 L234.0 186.2" fill="none" stroke="#f0e4cc" stroke-width="6" stroke-linecap="round" opacity="0.400"/>
      <path d="M-16.0 265.6 L-6.0 264.5 L4.0 261.0 L14.0 255.3 L24.0 248.2 L34.0 240.5 L44.0 232.9 L54.0 226.3 L64.0 221.4 L74.0 218.7 L84.0 218.6 L94.0 221.1 L104.0 225.8 L114.0 232.3 L124.0 239.8 L134.0 247.6 L144.0 254.8 L154.0 260.5 L164.0 264.3 L174.0 265.6 L184.0 264.4 L194.0 260.7 L204.0 255.0 L214.0 247.9 L224.0 240.1 L234.0 232.5" fill="none" stroke="#f0e4cc" stroke-width="6" stroke-linecap="round" opacity="0.370"/>
      <path d="M-16.0 292.0 L-6.0 288.7 L4.0 284.1 L14.0 278.8 L24.0 273.2 L34.0 267.9 L44.0 263.4 L54.0 260.0 L64.0 258.2 L74.0 258.0 L84.0 259.6 L94.0 262.7 L104.0 267.1 L114.0 272.3 L124.0 277.9 L134.0 283.3 L144.0 288.0 L154.0 291.5 L164.0 293.6 L174.0 294.1 L184.0 292.8 L194.0 289.9 L204.0 285.7 L214.0 280.6 L224.0 275.0 L234.0 269.6" fill="none" stroke="#f0e4cc" stroke-width="6" stroke-linecap="round" opacity="0.340"/>
      <path d="M-16.0 301.6 L-6.0 296.0 L4.0 293.8 L14.0 295.5 L24.0 300.7 L34.0 308.1 L44.0 316.0 L54.0 322.4 L64.0 325.9 L74.0 325.5 L84.0 321.4 L94.0 314.6 L104.0 306.7 L114.0 299.6 L124.0 294.9 L134.0 293.9 L144.0 296.8 L154.0 302.8 L164.0 310.6 L174.0 318.2 L184.0 323.8 L194.0 326.2 L204.0 324.6 L214.0 319.6 L224.0 312.2 L234.0 304.3" fill="none" stroke="#f0e4cc" stroke-width="6" stroke-linecap="round" opacity="0.310"/>
    </g>
    <g id="ogPatternDots">
      <circle cx="45.9" cy="83.7" r="4.6" fill="#f0e4cc" opacity="0.441"/>
      <circle cx="68.4" cy="86.3" r="4.6" fill="#f0e4cc" opacity="0.387"/>
      <circle cx="106.9" cy="93.8" r="4.6" fill="#f0e4cc" opacity="0.395"/>
      <circle cx="130.8" cy="89.5" r="4.6" fill="#f0e4cc" opacity="0.361"/>
      <circle cx="157.8" cy="81.4" r="4.6" fill="#f0e4cc" opacity="0.425"/>
      <circle cx="190.0" cy="88.3" r="4.6" fill="#f0e4cc" opacity="0.426"/>
      <circle cx="38.1" cy="118.1" r="4.6" fill="#f0e4cc" opacity="0.411"/>
      <circle cx="67.3" cy="111.8" r="4.6" fill="#f0e4cc" opacity="0.502"/>
      <circle cx="102.4" cy="122.3" r="4.6" fill="#f0e4cc" opacity="0.478"/>
      <circle cx="132.9" cy="123.8" r="4.6" fill="#f0e4cc" opacity="0.407"/>
      <circle cx="168.1" cy="112.3" r="4.6" fill="#f0e4cc" opacity="0.424"/>
      <circle cx="190.8" cy="122.3" r="4.6" fill="#f0e4cc" opacity="0.445"/>
      <circle cx="42.5" cy="143.9" r="4.6" fill="#f0e4cc" opacity="0.371"/>
      <circle cx="73.2" cy="144.3" r="4.6" fill="#f0e4cc" opacity="0.479"/>
      <circle cx="99.8" cy="147.5" r="4.6" fill="#f0e4cc" opacity="0.385"/>
      <circle cx="138.0" cy="147.9" r="4.6" fill="#f0e4cc" opacity="0.467"/>
      <circle cx="156.3" cy="145.8" r="4.6" fill="#f0e4cc" opacity="0.424"/>
      <circle cx="185.5" cy="148.7" r="4.6" fill="#f0e4cc" opacity="0.444"/>
      <circle cx="46.0" cy="175.3" r="4.6" fill="#f0e4cc" opacity="0.377"/>
      <circle cx="67.5" cy="178.8" r="4.6" fill="#f0e4cc" opacity="0.384"/>
      <circle cx="99.3" cy="178.4" r="4.6" fill="#f0e4cc" opacity="0.454"/>
      <circle cx="127.6" cy="173.3" r="4.6" fill="#f0e4cc" opacity="0.369"/>
      <circle cx="165.2" cy="182.2" r="4.6" fill="#f0e4cc" opacity="0.467"/>
      <circle cx="188.7" cy="174.3" r="4.6" fill="#f0e4cc" opacity="0.377"/>
      <circle cx="37.9" cy="202.2" r="4.6" fill="#f0e4cc" opacity="0.458"/>
      <circle cx="78.4" cy="208.6" r="4.6" fill="#f0e4cc" opacity="0.369"/>
      <circle cx="102.5" cy="208.0" r="4.6" fill="#f0e4cc" opacity="0.491"/>
      <circle cx="135.3" cy="208.0" r="4.6" fill="#f0e4cc" opacity="0.363"/>
      <circle cx="164.8" cy="205.7" r="4.6" fill="#f0e4cc" opacity="0.424"/>
      <circle cx="191.1" cy="208.1" r="4.6" fill="#f0e4cc" opacity="0.474"/>
      <circle cx="36.5" cy="241.8" r="4.6" fill="#f0e4cc" opacity="0.430"/>
      <circle cx="68.2" cy="243.1" r="4.6" fill="#f0e4cc" opacity="0.477"/>
      <circle cx="103.6" cy="241.1" r="4.6" fill="#f0e4cc" opacity="0.459"/>
      <circle cx="128.4" cy="235.5" r="4.6" fill="#f0e4cc" opacity="0.467"/>
      <circle cx="156.4" cy="231.3" r="4.6" fill="#f0e4cc" opacity="0.433"/>
      <circle cx="185.3" cy="231.9" r="4.6" fill="#f0e4cc" opacity="0.442"/>
      <circle cx="37.4" cy="271.5" r="4.6" fill="#f0e4cc" opacity="0.493"/>
      <circle cx="75.0" cy="261.3" r="4.6" fill="#f0e4cc" opacity="0.421"/>
      <circle cx="98.1" cy="266.3" r="4.6" fill="#f0e4cc" opacity="0.474"/>
      <circle cx="138.0" cy="267.4" r="4.6" fill="#f0e4cc" opacity="0.479"/>
      <circle cx="156.5" cy="270.1" r="4.6" fill="#f0e4cc" opacity="0.450"/>
      <circle cx="188.3" cy="268.1" r="4.6" fill="#f0e4cc" opacity="0.375"/>
      <circle cx="40.6" cy="295.7" r="4.6" fill="#f0e4cc" opacity="0.394"/>
      <circle cx="66.7" cy="292.2" r="4.6" fill="#f0e4cc" opacity="0.481"/>
      <circle cx="103.0" cy="296.0" r="4.6" fill="#f0e4cc" opacity="0.459"/>
      <circle cx="132.5" cy="295.0" r="4.6" fill="#f0e4cc" opacity="0.468"/>
      <circle cx="159.8" cy="295.9" r="4.6" fill="#f0e4cc" opacity="0.426"/>
      <circle cx="192.0" cy="292.9" r="4.6" fill="#f0e4cc" opacity="0.493"/>
      <circle cx="36.2" cy="323.2" r="4.6" fill="#f0e4cc" opacity="0.431"/>
      <circle cx="65.5" cy="324.1" r="4.6" fill="#f0e4cc" opacity="0.466"/>
      <circle cx="98.1" cy="332.5" r="4.6" fill="#f0e4cc" opacity="0.465"/>
      <circle cx="132.7" cy="333.5" r="4.6" fill="#f0e4cc" opacity="0.503"/>
      <circle cx="168.5" cy="331.3" r="4.6" fill="#f0e4cc" opacity="0.379"/>
      <circle cx="190.2" cy="333.0" r="4.6" fill="#f0e4cc" opacity="0.483"/>
      <circle cx="42.6" cy="364.5" r="4.6" fill="#f0e4cc" opacity="0.480"/>
      <circle cx="78.2" cy="354.4" r="4.6" fill="#f0e4cc" opacity="0.506"/>
      <circle cx="96.5" cy="358.9" r="4.6" fill="#f0e4cc" opacity="0.508"/>
      <circle cx="138.3" cy="360.0" r="4.6" fill="#f0e4cc" opacity="0.410"/>
      <circle cx="167.7" cy="353.5" r="4.6" fill="#f0e4cc" opacity="0.458"/>
      <circle cx="193.9" cy="360.3" r="4.6" fill="#f0e4cc" opacity="0.474"/>
    </g>
  </defs>
  <rect width="1200" height="630" fill="#f4f1ea"/>
  <g opacity="1">
  <use href="#stageDotRow" y="0"/>
  <use href="#stageDotRow" y="20"/>
  <use href="#stageDotRow" y="40"/>
  <use href="#stageDotRow" y="60"/>
  <use href="#stageDotRow" y="80"/>
  <use href="#stageDotRow" y="100"/>
  <use href="#stageDotRow" y="120"/>
  <use href="#stageDotRow" y="140"/>
  <use href="#stageDotRow" y="160"/>
  <use href="#stageDotRow" y="180"/>
  <use href="#stageDotRow" y="200"/>
  <use href="#stageDotRow" y="220"/>
  <use href="#stageDotRow" y="240"/>
  <use href="#stageDotRow" y="260"/>
  <use href="#stageDotRow" y="280"/>
  <use href="#stageDotRow" y="300"/>
  <use href="#stageDotRow" y="320"/>
  <use href="#stageDotRow" y="340"/>
  <use href="#stageDotRow" y="360"/>
  <use href="#stageDotRow" y="380"/>
  <use href="#stageDotRow" y="400"/>
  <use href="#stageDotRow" y="420"/>
  <use href="#stageDotRow" y="440"/>
  <use href="#stageDotRow" y="460"/>
  <use href="#stageDotRow" y="480"/>
  <use href="#stageDotRow" y="500"/>
  <use href="#stageDotRow" y="520"/>
  <use href="#stageDotRow" y="540"/>
  <use href="#stageDotRow" y="560"/>
  <use href="#stageDotRow" y="580"/>
  <use href="#stageDotRow" y="600"/>
  <use href="#stageDotRow" y="620"/>
  </g>
  <circle cx="1050" cy="80" r="150" fill="#c47c3b" opacity="0.12"/>
  <circle cx="80" cy="560" r="210" fill="#7060a8" opacity="0.10"/>

  <g transform="translate(84 58)">
    <g transform="scale(1.375)">
      <rect width="32" height="32" rx="7" fill="#18141c"/>
      <rect x="4" y="8" width="5.5" height="16" rx="1.6" fill="#f0e4cc"/>
      <rect x="13.25" y="6" width="5.5" height="20" rx="1.6" fill="#e07828"/>
      <rect x="22.5" y="8" width="5.5" height="16" rx="1.6" fill="#7060a8"/>
      <circle cx="6.75" cy="10.2" r="0.75" fill="#18141c" opacity="0.45"/>
      <circle cx="16" cy="8.2" r="0.75" fill="#18141c" opacity="0.45"/>
      <circle cx="25.25" cy="10.2" r="0.75" fill="#18141c" opacity="0.45"/>
    </g>
    <text x="62" y="34" font-family="Inter, -apple-system, BlinkMacSystemFont, 'Segoe UI', sans-serif" font-size="30" font-weight="700" fill="#1a1612">Truepane</text>
  </g>

  <g transform="translate(84 184)">
    <text x="0" y="0" font-family="Inter, -apple-system, BlinkMacSystemFont, 'Segoe UI', sans-serif" font-size="64" font-weight="800" fill="#1a1612">App screenshots</text>
    <text x="0" y="72" font-family="Inter, -apple-system, BlinkMacSystemFont, 'Segoe UI', sans-serif" font-size="64" font-weight="800" fill="#1a1612">made in browser</text>
    <text x="0" y="132" font-family="Inter, -apple-system, BlinkMacSystemFont, 'Segoe UI', sans-serif" font-size="24" font-weight="500" fill="#5f564d">Local canvas rendering. PNG, strip, and ZIP export.</text>
  </g>

  <g transform="translate(748 158) scale(0.68)">
    <g transform="rotate(-6 120 240)">
      <rect x="0" y="0" width="220" height="480" rx="34" fill="#fff"/>
      <rect x="16" y="16" width="188" height="448" rx="24" fill="#d9a16b"/>
      <g clip-path="url(#ogCardPatternClip)">
        <use href="#ogPatternRings"/>
      </g>
      <text x="40" y="82" font-family="Inter, -apple-system, BlinkMacSystemFont, 'Segoe UI', sans-serif" font-size="28" font-weight="800" fill="#1a1612">Flow</text>
      <rect x="48" y="128" width="124" height="260" rx="20" fill="#1d1d1f"/>
      <rect x="49" y="129" width="122" height="258" rx="19" fill="#0a0a0c"/>
      <rect x="51" y="131" width="118" height="254" rx="17" fill="#fbf9f4"/>
      <rect x="90" y="148" width="40" height="7" rx="3.5" fill="#1a1612" opacity="0.86"/>
      <rect x="63" y="172" width="94" height="32" rx="8" fill="#f0e4cc"/>
      <rect x="73" y="182" width="48" height="5" rx="2.5" fill="#1a1612" opacity="0.54"/>
      <rect x="73" y="193" width="68" height="4" rx="2" fill="#1a1612" opacity="0.28"/>
      <rect x="63" y="215" width="42" height="46" rx="8" fill="#fff" stroke="#e4ded2" stroke-width="2"/>
      <rect x="115" y="215" width="42" height="46" rx="8" fill="#fff" stroke="#e4ded2" stroke-width="2"/>
      <rect x="75" y="231" width="18" height="10" rx="5" fill="#c47c3b"/>
      <rect x="127" y="231" width="18" height="10" rx="5" fill="#7060a8"/>
      <rect x="63" y="278" width="94" height="6" rx="3" fill="#1a1612" opacity="0.22"/>
      <rect x="63" y="294" width="78" height="6" rx="3" fill="#1a1612" opacity="0.16"/>
      <rect x="63" y="310" width="88" height="6" rx="3" fill="#1a1612" opacity="0.16"/>
      <rect x="63" y="340" width="42" height="24" rx="8" fill="#f0e4cc"/>
      <rect x="115" y="340" width="42" height="24" rx="8" fill="#f6efe3"/>
      <circle cx="84" cy="352" r="6" fill="#c47c3b"/>
      <circle cx="136" cy="352" r="6" fill="#7060a8"/>
    </g>
    <g transform="translate(198 78)">
      <rect x="0" y="0" width="220" height="480" rx="34" fill="#fff"/>
      <rect x="16" y="16" width="188" height="448" rx="24" fill="#9eac88"/>
      <g clip-path="url(#ogCardPatternClip)">
        <use href="#ogPatternWaves"/>
      </g>
      <text x="40" y="82" font-family="Inter, -apple-system, BlinkMacSystemFont, 'Segoe UI', sans-serif" font-size="28" font-weight="800" fill="#1a1612">Go</text>
      <rect x="48" y="128" width="124" height="260" rx="20" fill="#1d1d1f"/>
      <rect x="49" y="129" width="122" height="258" rx="19" fill="#0a0a0c"/>
      <rect x="51" y="131" width="118" height="254" rx="17" fill="#fbf9f4"/>
      <rect x="90" y="148" width="40" height="7" rx="3.5" fill="#1a1612" opacity="0.86"/>
      <rect x="63" y="171" width="94" height="18" rx="9" fill="#eef0e5"/>
      <circle cx="110" cy="239" r="38" fill="none" stroke="#e4ded2" stroke-width="8"/>
      <path d="M110 201 A38 38 0 0 1 144 256" fill="none" stroke="#c47c3b" stroke-width="8" stroke-linecap="round"/>
      <circle cx="110" cy="239" r="8" fill="#1a1612" opacity="0.82"/>
      <rect x="72" y="301" width="76" height="8" rx="4" fill="#1a1612" opacity="0.78"/>
      <rect x="82" y="318" width="56" height="6" rx="3" fill="#1a1612" opacity="0.26"/>
      <rect x="63" y="344" width="94" height="24" rx="8" fill="#eef0e5"/>
      <rect x="75" y="353" width="46" height="6" rx="3" fill="#1a1612" opacity="0.24"/>
      <circle cx="144" cy="356" r="6" fill="#c47c3b"/>
    </g>
    <g transform="translate(370 136) rotate(4 120 240)">
      <rect x="0" y="0" width="220" height="480" rx="34" fill="#fff"/>
      <rect x="16" y="16" width="188" height="448" rx="24" fill="#b4a2c8"/>
      <g clip-path="url(#ogCardPatternClip)">
        <use href="#ogPatternDots"/>
      </g>
      <text x="40" y="82" font-family="Inter, -apple-system, BlinkMacSystemFont, 'Segoe UI', sans-serif" font-size="28" font-weight="800" fill="#1a1612">Browse</text>
      <rect x="48" y="128" width="124" height="260" rx="20" fill="#1d1d1f"/>
      <rect x="49" y="129" width="122" height="258" rx="19" fill="#0a0a0c"/>
      <rect x="51" y="131" width="118" height="254" rx="17" fill="#fbf9f4"/>
      <rect x="90" y="148" width="40" height="7" rx="3.5" fill="#1a1612" opacity="0.86"/>
      <rect x="63" y="172" width="94" height="62" rx="10" fill="#e6ead9"/>
      <circle cx="84" cy="203" r="12" fill="#5b6647"/>
      <rect x="105" y="191" width="38" height="6" rx="3" fill="#1a1612" opacity="0.62"/>
      <rect x="105" y="206" width="28" height="5" rx="2.5" fill="#1a1612" opacity="0.28"/>
      <rect x="63" y="248" width="94" height="38" rx="8" fill="#fff" stroke="#e4ded2" stroke-width="2"/>
      <rect x="75" y="262" width="64" height="5" rx="2.5" fill="#1a1612" opacity="0.34"/>
      <rect x="75" y="274" width="44" height="5" rx="2.5" fill="#1a1612" opacity="0.20"/>
      <rect x="63" y="300" width="94" height="38" rx="8" fill="#fff" stroke="#e4ded2" stroke-width="2"/>
      <rect x="75" y="314" width="70" height="5" rx="2.5" fill="#1a1612" opacity="0.34"/>
      <rect x="75" y="326" width="36" height="5" rx="2.5" fill="#1a1612" opacity="0.20"/>
    </g>
  </g>

  <g transform="translate(84 488)">
    <rect x="0" y="0" width="148" height="34" rx="17" fill="#1a1612"/>
    <text x="20" y="23" font-family="Inter, -apple-system, BlinkMacSystemFont, 'Segoe UI', sans-serif" font-size="15" font-weight="700" fill="#fff">Local render</text>
    <rect x="160" y="0" width="124" height="34" rx="17" fill="#fff" stroke="#d7d0c2"/>
    <text x="180" y="23" font-family="Inter, -apple-system, BlinkMacSystemFont, 'Segoe UI', sans-serif" font-size="15" font-weight="700" fill="#1a1612">No upload</text>
    <rect x="296" y="0" width="154" height="34" rx="17" fill="#fff" stroke="#d7d0c2"/>
    <text x="316" y="23" font-family="Inter, -apple-system, BlinkMacSystemFont, 'Segoe UI', sans-serif" font-size="15" font-weight="700" fill="#1a1612">Store exports</text>
  </g>
</svg>
